<svg id="Layer_1" data-name="Layer 1" xmlns="http://www.w3.org/2000/svg" viewBox="0 0 32 32"><title>Action_MailRegister_large_0eeabb6310ce45debe1dc71ae75fa157</title><rect x="5" y="2" width="22" height="27" fill="#fff"/><rect x="11" y="16" width="14" height="2" fill="#adb1b2"/><rect x="11" y="12" width="14" height="2" fill="#adb1b2"/><rect x="11" y="20" width="4" height="2" fill="#adb1b2"/><rect x="7" y="16" width="2" height="2" fill="#adb1b2"/><rect x="7" y="12" width="2" height="2" fill="#adb1b2"/><rect x="7" y="20" width="2" height="2" fill="#adb1b2"/><rect x="17" y="21" width="14" height="10" fill="#fff"/><path d="M31,20H17a1,1,0,0,0-1,1V31a1,1,0,0,0,1,1H31a1,1,0,0,0,1-1V21A1,1,0,0,0,31,20Zm0,1v0.36C29.57,22.7,27,26,24,26h0c-3,0-5.58-3.38-7-4.72V21H31ZM17,31V22.82a14.67,14.67,0,0,0,4.06,3.4L17.18,30.1a0.5,0.5,0,1,0,.71.71l4.17-4.15A5.88,5.88,0,0,0,24,27h0a5.81,5.81,0,0,0,1.91-.35l4.17,4.15a0.5,0.5,0,0,0,.71-0.71l-3.87-3.87A15.2,15.2,0,0,0,31,22.87V31H17Z" fill="#cc9823"/><rect x="11" y="8" width="14" height="2" fill="#adb1b2"/><rect x="7" y="8" width="2" height="2" fill="#adb1b2"/><path d="M15,29H5V2H27V19h2V1a1,1,0,0,0-1-1H4A1,1,0,0,0,3,1V30a1,1,0,0,0,1,1H15V29Z" fill="#9da2a5"/></svg>