<svg id="Layer_1" data-name="Layer 1" xmlns="http://www.w3.org/2000/svg" viewBox="0 0 32 32"><title>incomingtaxinvoice_32</title><polygon points="2 6 2 26 29 26 29 10 25 6 2 6" fill="#fff"/><path d="M29,10H25V6M23,4v7a1,1,0,0,0,1,1h7Z" fill="#9da2a5"/><rect x="5" y="10" width="9" height="2" transform="translate(19 22) rotate(-180)" fill="#7da7b5"/><rect x="5" y="14" width="21" height="2" transform="translate(31 30) rotate(-180)" fill="#adb1b2"/><rect x="5" y="18" width="21" height="2" transform="translate(31 38) rotate(-180)" fill="#adb1b2"/><rect x="5" y="22" width="21" height="2" transform="translate(31 46) rotate(-180)" fill="#adb1b2"/><rect x="5" y="14" width="2" height="10" fill="#adb1b2"/><rect x="10" y="14" width="2" height="10" fill="#adb1b2"/><rect x="24" y="14" width="2" height="10" fill="#adb1b2"/><rect x="15" y="14" width="2" height="10" fill="#adb1b2"/><rect x="20" y="14" width="2" height="10" fill="#adb1b2"/><path d="M2,26V6H24l5,5V24h2V10.5L24.5,4H1A1,1,0,0,0,0,5V27a1,1,0,0,0,1,1H19.71L18,26H2Z" fill="#9da2a5"/><rect x="21" y="16" width="6" height="8" fill="#fff"/><polygon points="28 25 28 17 22 17 22 25 19 25 25 31 31 25 28 25" fill="#75ad15"/></svg>