<svg id="Layer_1" data-name="Layer 1" xmlns="http://www.w3.org/2000/svg" viewBox="0 0 16 16"><title>incomingtaxinvoice</title><polygon points="15 13 1 13 1 3 13.5 3 15 4.5 15 13" fill="#fff"/><rect x="3" y="5" width="4" height="1" fill="#7da7b5"/><rect x="4" y="7" width="6" height="1" fill="#adb1b2"/><rect x="4" y="9" width="6" height="1" fill="#adb1b2"/><rect x="4" y="11" width="4" height="1" fill="#adb1b2"/><rect x="1" y="9" width="5" height="1" transform="translate(-6 13) rotate(-90)" fill="#adb1b2"/><rect x="5" y="9" width="5" height="1" transform="translate(-2 17) rotate(-90)" fill="#adb1b2"/><polygon points="11 12 11 7 14 7 14 12 16 12 12.5 16 9 12 11 12" fill="#75ad15"/><path d="M13.4,2H1A1,1,0,0,0,0,3V13a1,1,0,0,0,1,1H9L8,13H1V3H12V5a1,1,0,0,0,1,1h2v5h1V4.6ZM13,5V3l2,2H13Z" fill="#798288"/></svg>