<svg id="Layer_1" data-name="Layer 1" xmlns="http://www.w3.org/2000/svg" viewBox="0 0 32 32"><title>ArioIcon_large</title><path d="M26.47,26.36h-.08a3.63,3.63,0,0,1-2.71-1.44,29,29,0,0,1-3.17-4.53l-.19-.33a53.09,53.09,0,0,1-2.53-4.88,3.66,3.66,0,0,1-.19-2.93A4.51,4.51,0,0,1,20.29,10a38.39,38.39,0,0,1,6.3-1.86,12.69,12.69,0,0,1,1.89-.22,2.11,2.11,0,0,1,2.25,1,1.13,1.13,0,0,1,.12.57c0,.93-1,1.51-1.61,1.9l-.27.16c-.93.55-3.41,2-4.21,2.5a.48.48,0,0,0-.27.39v.1l-.84.2.85-.09-.83.19.85,0a1.23,1.23,0,0,0,0,.22l.2.59c.32.86.84,2.18,1.38,3.51,1.05,2.64,1.69,4.28,1.81,4.79A2,2,0,0,1,27.48,26l-.19.13,0,0-.14.14h-.21A1.31,1.31,0,0,1,26.47,26.36Zm2.27-16.8h-.19a12.13,12.13,0,0,0-1.66.21,35.38,35.38,0,0,0-6,1.76,2.93,2.93,0,0,0-1.75,1.36,2.06,2.06,0,0,0,.16,1.61,50.14,50.14,0,0,0,2.46,4.72l.19.33a26.23,26.23,0,0,0,3,4.24,2.07,2.07,0,0,0,1.4.87h0a4.51,4.51,0,0,0-.08-.47c-.09-.42-1-2.69-1.73-4.53-.54-1.34-1.07-2.68-1.4-3.55l-.22-.66a3,3,0,0,1-.09-.35l-.07-.64c0-.06,0-.11,0-.17v-.11a2.19,2.19,0,0,1,1.08-1.67L28.1,10l.27-.15.45-.29Z" fill="#d7853c"/><path d="M18,31.85a6.06,6.06,0,0,1-4.17-2.35,49.35,49.35,0,0,1-5.59-8l-.34-.59a91.57,91.57,0,0,1-4.49-8.65,6,6,0,0,1-.32-4.72C3.74,6,5.23,4.76,7.54,3.83A67.88,67.88,0,0,1,18.66.55,21.8,21.8,0,0,1,22,.16c.64,0,2.65-.13,3.36,1.37a1.46,1.46,0,0,1,.15.72c0,1.18-1.24,2-2.56,2.82l-.13.08c-1.29.76-6.32,3.74-7.85,4.67A1.48,1.48,0,0,0,14.12,11l-.86.07.85,0v.14l0,.39a8,8,0,0,0,.5,1.72l.25.68c.58,1.52,1.4,3.57,2.22,5.64,1.81,4.53,3,7.57,3.21,8.43s.54,2.5-.72,3.32l-.12.08-.21.11-.29.11a2,2,0,0,1-.75.1Zm4.35-30H22A20.52,20.52,0,0,0,19,2.23,65.21,65.21,0,0,0,8.17,5.41c-1.86.75-3,1.69-3.49,2.8A4.28,4.28,0,0,0,5,11.6,86.8,86.8,0,0,0,9.4,20.09l.33.6a48.72,48.72,0,0,0,5.39,7.68,4.28,4.28,0,0,0,3.08,1.78.86.86,0,0,0,.23,0l.21-.1c.17-.11.28-.3,0-1.54-.18-.79-1.74-4.71-3.12-8.17-.83-2.08-1.66-4.14-2.24-5.67l-.07-.2L13,14a9.62,9.62,0,0,1-.59-2.12l0-.14a2.46,2.46,0,0,1,0-.26V11c0-.06,0-.12,0-.18A3.24,3.24,0,0,1,14,8.36c1.54-.93,6.58-3.91,7.88-4.68l.13-.07c1.41-.84,1.68-1.21,1.72-1.35S23.15,1.85,22.37,1.85Z" fill="#d7853c"/><circle cx="7.5" cy="5.5" r="2.5" fill="#d7853c"/><circle cx="7.5" cy="18.5" r="2.5" fill="#d7853c"/><circle cx="13" cy="27.51" r="2" fill="#d7853c"/><circle cx="17" cy="21.5" r="2" fill="#d7853c"/><circle cx="21" cy="10.5" r="2" fill="#d7853c"/><circle cx="14" cy="10" r="2" fill="#d7853c"/><circle cx="21.93" cy="5" r="2" fill="#d7853c"/><circle cx="26" cy="20" r="2" fill="#d7853c"/></svg>