<svg id="Layer_1" data-name="Layer 1" xmlns="http://www.w3.org/2000/svg" viewBox="0 0 32 32"><title>GroupIconGroup2_large_5430a5b483b34623a8a172567176cf0c</title><path d="M30,13H26.95c-0.16-.45-1.11-2.16-1.32-2.58L27.3,8.75c0.76-.76,1-1.37.19-2.13L24.75,3.88c-0.76-.76-1.11-0.14-1.87.61L21.12,6.25c-0.31-.14-1.8-1.08-2.12-1.2V2c0-.5,0-1-1.06-1H14.06A0.88,0.88,0,0,0,13,2V5.05c-0.39.14-1.93,1.07-2.29,1.24l-2.21-2C7.75,3.57,8,3.37,6.83,3.92L4.09,6.66a1.39,1.39,0,0,0,.22,2.16l1.85,1.85C6,11,5.19,12.61,5.05,13H2a0.84,0.84,0,0,0-1,1v4c0,0.9,1.26,1,1,1H5c0.11,0.32.94,1.69,1.08,2l-2,2c-0.76.76-1.05,1.56-.3,2.32L6.5,28.08c0.76,0.76,1.18.48,1.94-.27l1.93-1.93c0.42,0.21,2.14,1,2.58,1.21L13,30c0.13,0.25-.07,1,1,1h4a1,1,0,0,0,1-1V27c0.39-.14,1.71-1.08,2.08-1.25l1.85,1.85a1.49,1.49,0,0,0,2.34.14L28,25c0.76-.76.23-0.94-0.53-1.69l-1.85-1.85c0.17-.37,1.19-2.07,1.32-2.46H30a0.92,0.92,0,0,0,1-1.06V14.06A0.92,0.92,0,0,0,30,13ZM16,20.88A4.59,4.59,0,0,1,11.13,16,4.82,4.82,0,0,1,16,11.13,5,5,0,0,1,20.88,16,4.78,4.78,0,0,1,16,20.88Z" fill="#fff"/><path d="M18,2V4.7a2,2,0,0,0,1.33,1.89c0.29,0.1.56,0.21,0.82,0.33a2,2,0,0,0,2.25-.4l1.82-1.82L27,7.51,25.32,9.24a2,2,0,0,0-.38,2.31,10,10,0,0,1,.48,1.12A2,2,0,0,0,27.3,14H30v4H27.3a2,2,0,0,0-1.89,1.33,10,10,0,0,1-.4,1,2,2,0,0,0,.39,2.28l1.91,1.91-2.83,2.83-1.91-1.91A2,2,0,0,0,20.3,25a9.94,9.94,0,0,1-1,.4A2,2,0,0,0,18,27.3V30H14V27.3a2,2,0,0,0-1.33-1.89,10,10,0,0,1-1.12-.48,2,2,0,0,0-2.31.38l-2,2L4.41,24.49l2.09-2.09a2,2,0,0,0,.4-2.25c-0.12-.25-0.23-0.53-0.33-0.82A2,2,0,0,0,4.7,18H2V14H4.7a2,2,0,0,0,1.89-1.33,10,10,0,0,1,.4-1,2,2,0,0,0-.39-2.28L4.69,7.51,7.51,4.69,9.42,6.59A2,2,0,0,0,11.7,7a10,10,0,0,1,1-.4A2,2,0,0,0,14,4.7V2h4M16,22a6,6,0,1,0-6-6,6,6,0,0,0,6,6M18,0H14a2,2,0,0,0-2,2V4.7a11.91,11.91,0,0,0-1.16.48L8.93,3.27a2,2,0,0,0-2.83,0L3.27,6.1a2,2,0,0,0,0,2.83l1.91,1.91A11.9,11.9,0,0,0,4.7,12H2a2,2,0,0,0-2,2v4a2,2,0,0,0,2,2H4.7c0.12,0.33.25,0.66,0.39,1L3,23.07A2,2,0,0,0,3,25.9l2.83,2.83a2,2,0,0,0,2.83,0l2-2A11.92,11.92,0,0,0,12,27.3V30a2,2,0,0,0,2,2h4a2,2,0,0,0,2-2V27.3a11.89,11.89,0,0,0,1.16-.48l1.91,1.91a2,2,0,0,0,2.83,0l2.83-2.83a2,2,0,0,0,0-2.83l-1.91-1.91A11.9,11.9,0,0,0,27.3,20H30a2,2,0,0,0,2-2V14a2,2,0,0,0-2-2H27.3a11.92,11.92,0,0,0-.57-1.35l1.72-1.72a2,2,0,0,0,0-2.83L25.63,3.27a2,2,0,0,0-2.83,0L21,5.09c-0.32-.15-0.65-0.28-1-0.39V2a2,2,0,0,0-2-2h0ZM16,20a4,4,0,1,1,4-4,4,4,0,0,1-4,4h0Z" fill="#6fa6d4"/></svg>