<svg id="Layer_1" data-name="Layer 1" xmlns="http://www.w3.org/2000/svg" viewBox="0 0 32 32"><title>Action_CheckConnection_large_7297eee14b2c4974b12be910144c57f5</title><polygon points="28 20 19 28 2 28 2 2 28 2 28 20" fill="#fff"/><polygon points="19 10.5 12 6 12 8 5 8 5 13 12 13 12 15 19 10.5" fill="#407fb9"/><path d="M18.79,16a0.77,0.77,0,0,0-.39.11,0.8,0.8,0,0,0-.39.69V31.2a0.8,0.8,0,0,0,.39.69,0.77,0.77,0,0,0,.78,0L31.6,24.7a0.81,0.81,0,0,0,0-1.39L19.17,16.1a0.77,0.77,0,0,0-.39-0.1h0Z" fill="#75ad15"/><polygon points="17 17 16 17 16 15 9 19.5 16 24 16 22 17 22 17 17" fill="#53b7b1"/><path d="M29,0H1A1,1,0,0,0,0,1V29a1,1,0,0,0,1,1H17V28H2V2H28V19.47l2,1.16V1A1,1,0,0,0,29,0Z" fill="#9da2a5"/></svg>