<svg id="Layer_1" data-name="Layer 1" xmlns="http://www.w3.org/2000/svg" viewBox="0 0 16 16"><title>Action_CheckConnection_small_7297eee14b2c4974b12be910144c57f5</title><polygon points="14 9 9 14 1 14 1 1 14 1 14 9" fill="#fff"/><polygon points="13 9 9 9 9 7 5.5 10 9 13 9 11 13 11 13 9" fill="#53b7b1"/><path d="M7,14H1V1H14V8.13l1,0.63V1a1,1,0,0,0-1-1H1A1,1,0,0,0,0,1V14a1,1,0,0,0,1,1H7V14Z" fill="#798288"/><rect x="7" y="5" width="5" height="8" fill="#fff"/><polygon points="8.5 5 5 2 5 4 2 4 2 6 5 6 5 8 8.5 5" fill="#407fb9"/><polygon points="16 11 8 16 8 6 16 11" fill="#75ad15"/></svg>