<svg id="Layer_1" data-name="Layer 1" xmlns="http://www.w3.org/2000/svg" viewBox="0 0 32 32"><title>contractstatement_32</title><polygon points="2 6 2 26 29 26 29 10 25 6 2 6" fill="#fff"/><path d="M24,6l5,5V26H2V6H24m0.5-2H1A1,1,0,0,0,0,5V27a1,1,0,0,0,1,1H30a1,1,0,0,0,1-1V10.5Z" fill="#9da2a5"/><path d="M29,10H25V6M23,4v7a1,1,0,0,0,1,1h7Z" fill="#9da2a5"/><rect x="10" y="11" width="10" height="2" transform="translate(30 24) rotate(-180)" fill="#adb1b2"/><rect x="5" y="15" width="21" height="2" transform="translate(31 32) rotate(-180)" fill="#adb1b2"/><rect x="5" y="19" width="21" height="2" transform="translate(31 40) rotate(-180)" fill="#adb1b2"/></svg>