<svg id="Layer_1" data-name="Layer 1" xmlns="http://www.w3.org/2000/svg" viewBox="0 0 16 16"><title>Inbox_small</title><rect x="1" y="3" width="14" height="10" fill="#fff"/><path d="M8,13H1V4.82a14.67,14.67,0,0,0,4.06,3.4L1.18,12.1a0.5,0.5,0,1,0,.71.71L6.06,8.65A5.88,5.88,0,0,0,8,9H8a5.81,5.81,0,0,0,1.91-.35L13.28,12H14.7L10.92,8.22A15.2,15.2,0,0,0,15,4.87V11h1V3a1,1,0,0,0-1-1H1A1,1,0,0,0,0,3V13a1,1,0,0,0,1,1H9ZM1,3H15V3.36C13.57,4.7,11,8,8,8H8C5,8,2.43,4.62,1,3.28V3Z" fill="#cc9823"/><rect x="10" y="6" width="5" height="7" fill="#fff"/><polygon points="11 12 11 7 14 7 14 12 16 12 12.5 16 9 12 11 12" fill="#75ad15"/></svg>